<svg xmlns="http://www.w3.org/2000/svg" 
fill="#fff"
width="15" height="11.25" viewBox="0 0 15 11.25">
  <path id="Path_275" data-name="Path 275" d="M14,0a.955.955,0,0,1,.625.25A.891.891,0,0,1,15,1v9.375a.955.955,0,0,1-.25.625,1.34,1.34,0,0,1-.75.25H1A1.34,1.34,0,0,1,.25,11,1.34,1.34,0,0,1,0,10.25V1A.955.955,0,0,1,.25.375.891.891,0,0,1,1,0ZM4.25,2.25a1.419,1.419,0,0,0-1-.375,1.419,1.419,0,0,0-1,.375,1.419,1.419,0,0,0-.375,1,1.419,1.419,0,0,0,.375,1,1.419,1.419,0,0,0,1,.375,1.419,1.419,0,0,0,1-.375,1.419,1.419,0,0,0,.375-1A1.419,1.419,0,0,0,4.25,2.25Zm8.875,7.125L9.375,3.75,6,8.125,3.75,6.5,1.875,9.375Z"/>
</svg>
